<svg width="50" height="50" viewBox="0 0 50 50" fill="none" xmlns="http://www.w3.org/2000/svg">
<path d="M3.125 16.4063H1.5625V13.2813C1.56366 12.2456 1.97559 11.2527 2.7079 10.5204C3.44021 9.78811 4.43311 9.37619 5.46875 9.37503H32.0312V7.81253H30.4688C30.3142 7.81253 30.1632 7.76672 30.0347 7.68087C29.9062 7.59503 29.8061 7.47301 29.7469 7.33025C29.6878 7.18749 29.6723 7.03041 29.7025 6.87885C29.7326 6.7273 29.807 6.5881 29.9163 6.47884L34.6038 1.79134C34.6764 1.71879 34.7625 1.66124 34.8573 1.62197C34.9521 1.58271 35.0536 1.5625 35.1562 1.5625C35.2589 1.5625 35.3604 1.58271 35.4552 1.62197C35.55 1.66124 35.6361 1.71879 35.7087 1.79134L40.3962 6.47884C40.5055 6.5881 40.5799 6.7273 40.61 6.87885C40.6402 7.03041 40.6247 7.18749 40.5656 7.33025C40.5064 7.47301 40.4063 7.59503 40.2778 7.68087C40.1493 7.76672 39.9983 7.81253 39.8438 7.81253H38.2812V9.37503H41.4062C42.4419 9.37619 43.4348 9.78811 44.1671 10.5204C44.8994 11.2527 45.3113 12.2456 45.3125 13.2813V28.9063H43.75V13.2813C43.7493 12.6599 43.5021 12.0642 43.0627 11.6248C42.6233 11.1854 42.0276 10.9382 41.4062 10.9375H38.2812V25H36.7188V7.03128C36.7188 6.82408 36.8011 6.62536 36.9476 6.47885C37.0941 6.33234 37.2928 6.25003 37.5 6.25003H37.9577L35.1562 3.44856L32.3548 6.25003H32.8125C33.0197 6.25003 33.2184 6.33234 33.3649 6.47885C33.5114 6.62536 33.5938 6.82408 33.5938 7.03128V25.7813H32.0312V10.9375H5.46875C4.84737 10.9382 4.25165 11.1854 3.81227 11.6248C3.37289 12.0642 3.12572 12.6599 3.125 13.2813V16.4063ZM5.46875 40.625H18.4812L16.6062 46.875H14.8438V48.4375H32.0312V46.875H30.2688L29.264 43.5254L27.7673 43.9746L28.6375 46.875H18.2371L20.1121 40.625H25.7812V39.0625H5.46875C4.84737 39.0618 4.25165 38.8146 3.81227 38.3752C3.37289 37.9359 3.12572 37.3401 3.125 36.7188V35.9375H25V34.375H3.125V17.9688H1.5625V36.7188C1.56366 37.7544 1.97559 38.7473 2.7079 39.4796C3.44021 40.2119 4.43311 40.6239 5.46875 40.625ZM28.9062 27.3438V14.8438H25.7812V32.8125H5.46875V31.25H8.59375V25C8.59375 24.7928 8.67606 24.5941 8.82257 24.4476C8.96909 24.3011 9.1678 24.2188 9.375 24.2188H14.0625C14.2697 24.2188 14.4684 24.3011 14.6149 24.4476C14.7614 24.5941 14.8438 24.7928 14.8438 25V31.25H16.4062V19.5313C16.4062 19.3241 16.4886 19.1254 16.6351 18.9788C16.7816 18.8323 16.9803 18.75 17.1875 18.75H21.875C22.0822 18.75 22.2809 18.8323 22.4274 18.9788C22.5739 19.1254 22.6562 19.3241 22.6562 19.5313V31.25H24.2188V14.0625C24.2188 13.8553 24.3011 13.6566 24.4476 13.5101C24.5941 13.3636 24.7928 13.2813 25 13.2813H29.6875C29.8947 13.2813 30.0934 13.3636 30.2399 13.5101C30.3864 13.6566 30.4688 13.8553 30.4688 14.0625V27.3438H28.9062ZM13.2812 25.7813H10.1562V31.25H13.2812V25.7813ZM21.0938 20.3125H17.9688V31.25H21.0938V20.3125ZM5.46875 12.5V14.0625H7.03125V12.5H5.46875ZM10.1562 12.5H8.59375V14.0625H10.1562V12.5ZM11.7188 12.5V14.0625H13.2812V12.5H11.7188ZM47.7507 44.4368C48.1888 44.8772 48.4355 45.4726 48.4375 46.0938C48.4378 46.4016 48.3774 46.7065 48.2597 46.991C48.142 47.2755 47.9694 47.534 47.7517 47.7517C47.534 47.9694 47.2755 48.142 46.991 48.2597C46.7065 48.3774 46.4016 48.4378 46.0938 48.4375C45.4733 48.4321 44.8792 48.1858 44.4368 47.7507L40.6973 44.0112C38.7302 45.1716 36.4075 45.5747 34.1646 45.1449C31.9216 44.7151 29.9124 43.4819 28.5137 41.6766C27.1149 39.8713 26.4227 37.6178 26.5667 35.3386C26.7108 33.0594 27.6812 30.9109 29.296 29.2961C30.9109 27.6812 33.0593 26.7108 35.3386 26.5667C37.6178 26.4227 39.8713 27.115 41.6766 28.5137C43.4819 29.9124 44.715 31.9216 45.1448 34.1646C45.5746 36.4075 45.1716 38.7303 44.0112 40.6973L47.7507 44.4368ZM43.75 35.9375C43.75 34.3923 43.2918 32.8819 42.4334 31.5971C41.5749 30.3124 40.3548 29.311 38.9272 28.7197C37.4997 28.1284 35.9288 27.9737 34.4134 28.2751C32.8979 28.5766 31.5058 29.3207 30.4132 30.4132C29.3206 31.5058 28.5766 32.8979 28.2751 34.4134C27.9737 35.9288 28.1284 37.4997 28.7197 38.9272C29.311 40.3548 30.3123 41.5749 31.5971 42.4334C32.8819 43.2918 34.3923 43.75 35.9375 43.75C38.0088 43.7477 39.9946 42.9238 41.4592 41.4592C42.9238 39.9946 43.7476 38.0088 43.75 35.9375ZM46.6457 45.5418L43.0923 41.9882C42.7553 42.386 42.386 42.7553 41.9882 43.0923L45.5418 46.6457C45.6135 46.7213 45.6997 46.7817 45.7952 46.8235C45.8907 46.8652 45.9935 46.8874 46.0977 46.8888C46.202 46.8901 46.3054 46.8706 46.4019 46.8314C46.4984 46.7921 46.5861 46.7339 46.6598 46.6602C46.7335 46.5865 46.7917 46.4988 46.831 46.4023C46.8702 46.3058 46.8897 46.2024 46.8884 46.0982C46.887 45.9939 46.8648 45.8911 46.8231 45.7956C46.7813 45.7001 46.7209 45.6139 46.6453 45.5422L46.6457 45.5418ZM42.1875 35.9375C42.1875 37.1736 41.8209 38.382 41.1342 39.4098C40.4474 40.4376 39.4713 41.2387 38.3293 41.7118C37.1872 42.1848 35.9306 42.3086 34.7182 42.0674C33.5058 41.8263 32.3922 41.231 31.5181 40.3569C30.644 39.4829 30.0487 38.3692 29.8076 37.1568C29.5664 35.9445 29.6902 34.6878 30.1633 33.5457C30.6363 32.4037 31.4374 31.4276 32.4652 30.7408C33.493 30.0541 34.7014 29.6875 35.9375 29.6875C37.5945 29.6894 39.1832 30.3485 40.3549 31.5202C41.5266 32.6919 42.1856 34.2805 42.1875 35.9375ZM40.625 35.9375C40.625 35.0104 40.3501 34.1041 39.835 33.3333C39.3199 32.5624 38.5879 31.9616 37.7313 31.6068C36.8748 31.252 35.9323 31.1592 35.023 31.3401C34.1137 31.521 33.2785 31.9674 32.6229 32.623C31.9674 33.2785 31.5209 34.1137 31.3401 35.023C31.1592 35.9323 31.252 36.8748 31.6068 37.7313C31.9616 38.5879 32.5624 39.32 33.3333 39.835C34.1041 40.3501 35.0104 40.625 35.9375 40.625C37.1803 40.6236 38.3718 40.1293 39.2505 39.2506C40.1293 38.3718 40.6236 37.1803 40.625 35.9375ZM32.8125 35.9375H34.375C34.3755 35.5233 34.5403 35.1261 34.8332 34.8332C35.1261 34.5403 35.5233 34.3755 35.9375 34.375V32.8125C35.109 32.8134 34.3147 33.143 33.7288 33.7288C33.143 34.3147 32.8134 35.109 32.8125 35.9375ZM42.9688 6.25003H44.5312C44.5299 5.00725 44.0356 3.81576 43.1568 2.93698C42.278 2.0582 41.0865 1.5639 39.8438 1.56253V3.12503C40.6723 3.12596 41.4666 3.4555 42.0524 4.04135C42.6383 4.6272 42.9678 5.42151 42.9688 6.25003Z" fill="#34495E"/>
</svg>
