<svg width="30" height="50" viewBox="0 0 30 50" fill="none" xmlns="http://www.w3.org/2000/svg">
<path d="M25.6653 0H4.33467C2.00371 0 0.107422 1.89629 0.107422 4.22725V7.87344C0.107422 8.27793 0.435352 8.60586 0.839844 8.60586C1.24434 8.60586 1.57227 8.27793 1.57227 7.87344V4.22725C1.57227 2.704 2.81143 1.46484 4.33467 1.46484H25.6654C27.1886 1.46484 28.4278 2.704 28.4278 4.22725V41.8457H1.57236V11.2914C1.57236 10.8869 1.24443 10.559 0.839941 10.559C0.435449 10.559 0.107519 10.8869 0.107519 11.2914V42.5781V45.7728C0.107519 48.1036 2.00381 50 4.33476 50H21.2062C21.6107 50 21.9387 49.6721 21.9387 49.2676C21.9387 48.8631 21.6107 48.5352 21.2062 48.5352H4.33467C2.81152 48.5352 1.57227 47.296 1.57227 45.7728V43.3105H28.4277V45.7728C28.4277 47.2959 27.1886 48.5352 25.6653 48.5352H24.624C24.2195 48.5352 23.8916 48.8631 23.8916 49.2676C23.8916 49.6721 24.2195 50 24.624 50H25.6653C27.9962 50 29.8926 48.1037 29.8926 45.7728V42.5781V4.22725C29.8926 1.89629 27.9963 0 25.6653 0V0Z" fill="#34495E"/>
<path d="M12.8027 45.2202C12.3982 45.2202 12.0703 45.5481 12.0703 45.9526C12.0703 46.3571 12.3982 46.6851 12.8027 46.6851H17.1973C17.6018 46.6851 17.9297 46.3571 17.9297 45.9526C17.9297 45.5481 17.6018 45.2202 17.1973 45.2202H12.8027Z" fill="#34495E"/>
<path d="M12.7051 17.7407H17.2949C17.9681 17.7407 18.5156 17.1932 18.5156 16.52V11.9302C18.5156 11.257 17.9681 10.7095 17.2949 10.7095H12.7051C12.0319 10.7095 11.4844 11.257 11.4844 11.9302V16.52C11.4844 17.1931 12.0319 17.7407 12.7051 17.7407ZM12.9492 12.1743H17.0508V16.2759H12.9492V12.1743Z" fill="#34495E"/>
<path d="M4.40039 17.7407H8.99023C9.66338 17.7407 10.2109 17.1932 10.2109 16.52V11.9302C10.2109 11.257 9.66338 10.7095 8.99023 10.7095H4.40039C3.72725 10.7095 3.17969 11.257 3.17969 11.9302V16.52C3.17969 17.1931 3.72734 17.7407 4.40039 17.7407ZM4.64453 12.1743H8.74609V16.2759H4.64453V12.1743Z" fill="#34495E"/>
<path d="M21.0098 17.7407H25.5996C26.2728 17.7407 26.8203 17.1932 26.8203 16.52V11.9302C26.8203 11.257 26.2728 10.7095 25.5996 10.7095H21.0098C20.3366 10.7095 19.7891 11.257 19.7891 11.9302V16.52C19.7891 17.1931 20.3366 17.7407 21.0098 17.7407ZM21.2539 12.1743H25.3555V16.2759H21.2539V12.1743Z" fill="#34495E"/>
<path d="M11.4844 25.655C11.4844 26.3282 12.0319 26.8757 12.7051 26.8757H17.2949C17.9681 26.8757 18.5156 26.3282 18.5156 25.655V21.0652C18.5156 20.392 17.9681 19.8445 17.2949 19.8445H12.7051C12.0319 19.8445 11.4844 20.392 11.4844 21.0652V25.655ZM12.9492 21.3093H17.0508V25.4109H12.9492V21.3093Z" fill="#34495E"/>
<path d="M3.17969 25.655C3.17969 26.3282 3.72725 26.8757 4.40039 26.8757H8.99023C9.66338 26.8757 10.2109 26.3282 10.2109 25.655V21.0652C10.2109 20.392 9.66338 19.8445 8.99023 19.8445H4.40039C3.72725 19.8445 3.17969 20.392 3.17969 21.0652V25.655ZM4.64453 21.3093H8.74609V25.4109H4.64453V21.3093Z" fill="#34495E"/>
<path d="M19.7891 25.655C19.7891 26.3282 20.3366 26.8757 21.0098 26.8757H25.5996C26.2728 26.8757 26.8203 26.3282 26.8203 25.655V21.0652C26.8203 20.392 26.2728 19.8445 25.5996 19.8445H21.0098C20.3366 19.8445 19.7891 20.392 19.7891 21.0652V25.655ZM21.2539 21.3093H25.3555V25.4109H21.2539V21.3093Z" fill="#34495E"/>
</svg>
