<svg width="50" height="44" viewBox="0 0 50 44" fill="none" xmlns="http://www.w3.org/2000/svg">
<path d="M46.4844 0.125H3.51562C2.79067 0.125801 2.09564 0.414144 1.58301 0.926765C1.07039 1.43939 0.782051 2.13442 0.78125 2.85938V34.1094C0.782051 34.8343 1.07039 35.5294 1.58301 36.042C2.09564 36.5546 2.79067 36.8429 3.51562 36.8438H19.2285L18.1865 39.9688H16.4062C16.199 39.9688 16.0003 40.0511 15.8538 40.1976C15.7073 40.3441 15.625 40.5428 15.625 40.75V42.3125H10.1562C9.94905 42.3125 9.75034 42.3948 9.60382 42.5413C9.45731 42.6878 9.375 42.8866 9.375 43.0938C9.375 43.3009 9.45731 43.4997 9.60382 43.6462C9.75034 43.7927 9.94905 43.875 10.1562 43.875H36.7188C36.9259 43.875 37.1247 43.7927 37.2712 43.6462C37.4177 43.4997 37.5 43.3009 37.5 43.0938C37.5 42.8866 37.4177 42.6878 37.2712 42.5413C37.1247 42.3948 36.9259 42.3125 36.7188 42.3125H34.375V40.75C34.375 40.5428 34.2927 40.3441 34.1462 40.1976C33.9997 40.0511 33.8009 39.9688 33.5938 39.9688H31.8135L30.7715 36.8438H46.4844C47.2093 36.8429 47.9044 36.5546 48.417 36.042C48.9296 35.5294 49.2179 34.8343 49.2188 34.1094V2.85938C49.2179 2.13442 48.9296 1.43939 48.417 0.926765C47.9044 0.414144 47.2093 0.125801 46.4844 0.125ZM32.8125 41.5312V42.3125H17.1875V41.5312H32.8125ZM19.834 39.9688L20.876 36.8438H29.124L30.166 39.9688H19.834ZM47.6562 34.1094C47.656 34.4201 47.5324 34.718 47.3127 34.9377C47.093 35.1574 46.7951 35.281 46.4844 35.2812H3.51562C3.2049 35.281 2.90698 35.1574 2.68727 34.9377C2.46756 34.718 2.34401 34.4201 2.34375 34.1094V32.9375H47.6562V34.1094ZM47.6562 31.375H2.34375V2.85938C2.34401 2.54865 2.46756 2.25073 2.68727 2.03102C2.90698 1.81131 3.2049 1.68776 3.51562 1.6875H46.4844C46.7951 1.68776 47.093 1.81131 47.3127 2.03102C47.5324 2.25073 47.656 2.54865 47.6562 2.85938V31.375Z" fill="#34495E"/>
<path d="M39.8438 42.3125H39.0625C38.8553 42.3125 38.6566 42.3948 38.5101 42.5413C38.3636 42.6878 38.2812 42.8865 38.2812 43.0938C38.2812 43.301 38.3636 43.4997 38.5101 43.6462C38.6566 43.7927 38.8553 43.875 39.0625 43.875H39.8438C40.051 43.875 40.2497 43.7927 40.3962 43.6462C40.5427 43.4997 40.625 43.301 40.625 43.0938C40.625 42.8865 40.5427 42.6878 40.3962 42.5413C40.2497 42.3948 40.051 42.3125 39.8438 42.3125Z" fill="#34495E"/>
<path d="M6.24942 20.4376C6.79323 20.4369 7.31991 20.2473 7.73949 19.9014C8.15907 19.5554 8.44552 19.0745 8.54991 18.5408L16.7539 13.0715C16.9746 13.4307 17.2881 13.7237 17.6614 13.9196C18.0347 14.1155 18.454 14.207 18.8749 14.1845C19.2959 14.162 19.703 14.0263 20.0533 13.7918C20.4036 13.5572 20.6841 13.2325 20.8652 12.8518L28.9805 15.5569C29.1146 16.0737 29.4211 16.5292 29.8494 16.848C30.2776 17.1669 30.8019 17.33 31.3354 17.3103C31.869 17.2906 32.3798 17.0894 32.7834 16.7399C33.187 16.3903 33.4592 15.9135 33.5549 15.3882L42.1948 8.90822C42.6076 9.27347 43.136 9.48131 43.6869 9.49512C44.2379 9.50892 44.776 9.3278 45.2065 8.98368C45.637 8.63956 45.9322 8.15452 46.0401 7.61406C46.148 7.07359 46.0616 6.51239 45.7963 6.02935C45.5309 5.54632 45.1035 5.17246 44.5895 4.97367C44.0755 4.77488 43.5078 4.76392 42.9864 4.94271C42.4651 5.12151 42.0236 5.47858 41.7398 5.95101C41.456 6.42343 41.348 6.98088 41.435 7.52511L33.213 13.6915C32.9861 13.3422 32.6702 13.0597 32.2978 12.8732C31.9254 12.6866 31.51 12.6028 31.0944 12.6302C30.6788 12.6577 30.278 12.7954 29.9334 13.0294C29.5888 13.2633 29.3128 13.5849 29.1338 13.961L21.0186 11.2559C20.8852 10.7413 20.5808 10.2874 20.1554 9.96856C19.73 9.64976 19.2089 9.48504 18.6775 9.50144C18.1462 9.51784 17.6362 9.71438 17.2313 10.0588C16.8264 10.4032 16.5506 10.8751 16.4491 11.3969L8.24493 16.8662C8.03085 16.5181 7.72945 16.232 7.37065 16.0363C7.01184 15.8406 6.60809 15.7421 6.19948 15.7506C5.79086 15.7592 5.39158 15.8744 5.04126 16.0849C4.69093 16.2954 4.40174 16.5939 4.20239 16.9507C4.00303 17.3074 3.90044 17.7102 3.9048 18.1188C3.90915 18.5275 4.0203 18.928 4.22721 19.2804C4.43412 19.6329 4.72961 19.9251 5.08434 20.1281C5.43907 20.3311 5.84071 20.4378 6.24942 20.4376ZM43.7494 6.37511C43.9039 6.37511 44.055 6.42093 44.1835 6.50678C44.3119 6.59262 44.4121 6.71464 44.4712 6.85739C44.5303 7.00015 44.5458 7.15723 44.5157 7.30878C44.4855 7.46033 44.4111 7.59953 44.3018 7.70879C44.1926 7.81805 44.0534 7.89246 43.9018 7.9226C43.7503 7.95275 43.5932 7.93728 43.4505 7.87814C43.3077 7.81901 43.1857 7.71888 43.0998 7.5904C43.014 7.46193 42.9682 7.31088 42.9682 7.15636C42.9684 6.94923 43.0508 6.75066 43.1973 6.60419C43.3437 6.45773 43.5423 6.37535 43.7494 6.37511ZM31.2494 14.1876C31.4039 14.1876 31.555 14.2334 31.6835 14.3193C31.8119 14.4051 31.9121 14.5271 31.9712 14.6699C32.0303 14.8127 32.0458 14.9697 32.0157 15.1213C31.9855 15.2728 31.9111 15.412 31.8018 15.5213C31.6926 15.6306 31.5534 15.705 31.4018 15.7351C31.2503 15.7653 31.0932 15.7498 30.9505 15.6906C30.8077 15.6315 30.6857 15.5314 30.5998 15.4029C30.514 15.2744 30.4682 15.1234 30.4682 14.9689C30.4684 14.7617 30.5508 14.5632 30.6973 14.4167C30.8437 14.2702 31.0423 14.1878 31.2494 14.1876ZM18.7494 11.0626C18.9039 11.0626 19.055 11.1084 19.1835 11.1943C19.3119 11.2801 19.4121 11.4021 19.4712 11.5449C19.5303 11.6876 19.5458 11.8447 19.5157 11.9963C19.4855 12.1478 19.4111 12.287 19.3018 12.3963C19.1926 12.5056 19.0534 12.58 18.9018 12.6101C18.7503 12.6402 18.5932 12.6248 18.4505 12.5656C18.3077 12.5065 18.1857 12.4064 18.0998 12.2779C18.014 12.1494 17.9682 11.9984 17.9682 11.8439C17.9684 11.6367 18.0508 11.4382 18.1973 11.2917C18.3437 11.1452 18.5423 11.0628 18.7494 11.0626ZM6.24942 17.3126C6.40394 17.3126 6.55498 17.3584 6.68346 17.4443C6.81194 17.5301 6.91207 17.6521 6.9712 17.7949C7.03033 17.9377 7.0458 18.0947 7.01566 18.2463C6.98551 18.3978 6.91111 18.537 6.80185 18.6463C6.69259 18.7556 6.55338 18.83 6.40183 18.8601C6.25029 18.8903 6.0932 18.8748 5.95045 18.8156C5.80769 18.7565 5.68568 18.6564 5.59983 18.5279C5.51399 18.3994 5.46817 18.2484 5.46817 18.0939C5.4684 17.8867 5.55079 17.6882 5.69725 17.5417C5.84371 17.3952 6.04229 17.3128 6.24942 17.3126Z" fill="#34495E"/>
<path d="M4.6875 29.0312H45.3125C45.5197 29.0312 45.7184 28.9489 45.8649 28.8024C46.0114 28.6559 46.0938 28.4572 46.0938 28.25C46.0938 28.0428 46.0114 27.8441 45.8649 27.6976C45.7184 27.5511 45.5197 27.4688 45.3125 27.4688H44.5312V11.0625C44.5312 10.8553 44.4489 10.6566 44.3024 10.5101C44.1559 10.3636 43.9572 10.2812 43.75 10.2812C43.5428 10.2812 43.3441 10.3636 43.1976 10.5101C43.0511 10.6566 42.9688 10.8553 42.9688 11.0625V27.4688H38.2812V22.7812C38.2812 22.574 38.1989 22.3753 38.0524 22.2288C37.9059 22.0823 37.7072 22 37.5 22C37.2928 22 37.0941 22.0823 36.9476 22.2288C36.8011 22.3753 36.7188 22.574 36.7188 22.7812V27.4688H32.0312V19.6562C32.0312 19.449 31.9489 19.2503 31.8024 19.1038C31.6559 18.9573 31.4572 18.875 31.25 18.875C31.0428 18.875 30.8441 18.9573 30.6976 19.1038C30.5511 19.2503 30.4688 19.449 30.4688 19.6562V27.4688H25.7812V22.7812C25.7812 22.574 25.6989 22.3753 25.5524 22.2288C25.4059 22.0823 25.2072 22 25 22C24.7928 22 24.5941 22.0823 24.4476 22.2288C24.3011 22.3753 24.2188 22.574 24.2188 22.7812V27.4688H19.5312V16.5312C19.5312 16.324 19.4489 16.1253 19.3024 15.9788C19.1559 15.8323 18.9572 15.75 18.75 15.75C18.5428 15.75 18.3441 15.8323 18.1976 15.9788C18.0511 16.1253 17.9688 16.324 17.9688 16.5312V27.4688H13.2812V22.7812C13.2812 22.574 13.1989 22.3753 13.0524 22.2288C12.9059 22.0823 12.7072 22 12.5 22C12.2928 22 12.0941 22.0823 11.9476 22.2288C11.8011 22.3753 11.7188 22.574 11.7188 22.7812V27.4688H7.03125V22.7812C7.03125 22.574 6.94894 22.3753 6.80243 22.2288C6.65591 22.0823 6.4572 22 6.25 22C6.0428 22 5.84409 22.0823 5.69757 22.2288C5.55106 22.3753 5.46875 22.574 5.46875 22.7812V27.4688H4.6875C4.4803 27.4688 4.28159 27.5511 4.13507 27.6976C3.98856 27.8441 3.90625 28.0428 3.90625 28.25C3.90625 28.4572 3.98856 28.6559 4.13507 28.8024C4.28159 28.9489 4.4803 29.0312 4.6875 29.0312Z" fill="#34495E"/>
</svg>
