<svg width="20" height="20" viewBox="0 0 20 20" fill="none" xmlns="http://www.w3.org/2000/svg">
<g clip-path="url(#clip0)">
<path d="M2.62421 2.677H2.62024C2.40448 2.677 2.22961 2.85221 2.22961 3.06839C2.22961 3.28457 2.40448 3.45978 2.62024 3.45978H2.62421C2.83997 3.45978 3.01483 3.28457 3.01483 3.06839C3.01483 2.85221 2.83997 2.677 2.62421 2.677Z" fill="#7E7E7E"/>
<path d="M4.55902 2.677H4.55505C4.33929 2.677 4.16443 2.85221 4.16443 3.06839C4.16443 3.28457 4.33929 3.45978 4.55505 3.45978H4.55902C4.77478 3.45978 4.94965 3.28457 4.94965 3.06839C4.94965 2.85221 4.77478 2.677 4.55902 2.677Z" fill="#7E7E7E"/>
<path d="M6.49384 2.677H6.48987C6.27411 2.677 6.09924 2.85221 6.09924 3.06839C6.09924 3.28457 6.27411 3.45978 6.48987 3.45978H6.49384C6.70959 3.45978 6.88446 3.28457 6.88446 3.06839C6.88446 2.85221 6.70959 2.677 6.49384 2.677Z" fill="#7E7E7E"/>
<path d="M17.3558 2.677H9.81949C9.60373 2.677 9.42886 2.85221 9.42886 3.06839C9.42886 3.28442 9.60373 3.45978 9.81949 3.45978H17.3558C17.5716 3.45978 17.7464 3.28442 17.7464 3.06839C17.7464 2.85221 17.5716 2.677 17.3558 2.677Z" fill="#7E7E7E"/>
<path d="M10.2692 18.4907C10.1665 18.4907 10.0661 18.5326 9.99298 18.6054C9.92035 18.6782 9.87854 18.7792 9.87854 18.8821C9.87854 18.985 9.92035 19.0861 9.99298 19.1588C10.0661 19.2316 10.1665 19.2735 10.2692 19.2735C10.3719 19.2735 10.4727 19.2316 10.5453 19.1588C10.6183 19.0861 10.6598 18.985 10.6598 18.8821C10.6598 18.7792 10.6183 18.6782 10.5453 18.6054C10.4727 18.5326 10.3719 18.4907 10.2692 18.4907Z" fill="#7E7E7E"/>
<path d="M18.759 0.802246H1.241C0.556793 0.802246 0 1.36013 0 2.04567V18.03C0 18.7157 0.556793 19.2734 1.241 19.2734H8.63281C8.84857 19.2734 9.02344 19.0982 9.02344 18.882C9.02344 18.6658 8.84857 18.4906 8.63281 18.4906H1.241C0.987549 18.4906 0.78125 18.2841 0.78125 18.03V5.33411H19.2188V18.03C19.2188 18.2839 19.0125 18.4906 18.759 18.4906H11.862C11.6463 18.4906 11.4714 18.6658 11.4714 18.882C11.4714 19.0982 11.6463 19.2734 11.862 19.2734H18.759C19.4432 19.2734 20 18.7157 20 18.03V2.04567C20 1.36013 19.4432 0.802246 18.759 0.802246ZM0.78125 4.55118V2.04567C0.78125 1.79173 0.987549 1.58502 1.241 1.58502H18.759C19.0125 1.58502 19.2188 1.79173 19.2188 2.04567V4.55133H0.78125V4.55118Z" fill="#7E7E7E"/>
<path d="M6.95465 9.80426C6.95465 9.0273 6.32385 8.39526 5.5484 8.39526H4.23325C4.01749 8.39526 3.84262 8.57047 3.84262 8.78665V12.8571C3.84262 13.0733 4.01749 13.2485 4.23325 13.2485H5.5484C6.32385 13.2485 6.95465 12.6165 6.95465 11.8395C6.95465 11.4397 6.78741 11.0786 6.51947 10.8219C6.78741 10.5652 6.95465 10.2041 6.95465 9.80426ZM6.1734 11.8395C6.1734 12.1847 5.89294 12.4657 5.5484 12.4657H4.62387V11.2133H5.5484C5.89294 11.2133 6.1734 11.4941 6.1734 11.8395ZM4.62387 10.4305V9.17804H5.5484C5.8931 9.17804 6.1734 9.45905 6.1734 9.80426C6.1734 10.1495 5.8931 10.4305 5.5484 10.4305H4.62387Z" fill="#7E7E7E"/>
<path d="M8.0722 8.39526C7.85645 8.39526 7.68158 8.57047 7.68158 8.78665V11.9519C7.68158 12.6669 8.26218 13.2485 8.97568 13.2485C9.19144 13.2485 9.3663 13.0733 9.3663 12.8571C9.3663 12.6409 9.19144 12.4657 8.97568 12.4657C8.69293 12.4657 8.46283 12.2352 8.46283 11.9519V8.78665C8.46283 8.57047 8.28796 8.39526 8.0722 8.39526Z" fill="#7E7E7E"/>
<path d="M12.6901 11.8312C12.6901 11.0497 12.0557 10.4138 11.2756 10.4138C10.4956 10.4138 9.86115 11.0497 9.86115 11.8312C9.86115 12.6128 10.4958 13.2485 11.2756 13.2485C12.0557 13.2485 12.6901 12.6128 12.6901 11.8312ZM10.6424 11.8312C10.6424 11.4813 10.9265 11.1966 11.2756 11.1966C11.6248 11.1966 11.9089 11.4813 11.9089 11.8312C11.9089 12.181 11.6249 12.4657 11.2756 12.4657C10.9264 12.4657 10.6424 12.181 10.6424 11.8312Z" fill="#7E7E7E"/>
<path d="M14.7427 14.3444C14.3936 14.3444 14.1095 14.0597 14.1095 13.7099C14.1095 13.4937 13.9346 13.3185 13.7189 13.3185C13.5031 13.3185 13.3282 13.4937 13.3282 13.7099C13.3282 14.4915 13.9629 15.1272 14.7427 15.1272C15.5228 15.1272 16.1574 14.4915 16.1574 13.7099V11.8312C16.1574 11.0497 15.5228 10.4138 14.7427 10.4138C13.9629 10.4138 13.3282 11.0497 13.3282 11.8312C13.3282 12.6128 13.9629 13.2485 14.7427 13.2485C14.9704 13.2485 15.1854 13.1941 15.3761 13.0979V13.7099C15.3761 14.0597 15.092 14.3444 14.7427 14.3444ZM14.7427 12.4657C14.3936 12.4657 14.1095 12.181 14.1095 11.8312C14.1095 11.4813 14.3936 11.1966 14.7427 11.1966C15.092 11.1966 15.3761 11.4813 15.3761 11.8312C15.3761 12.181 15.092 12.4657 14.7427 12.4657Z" fill="#7E7E7E"/>
<path d="M4.23325 17.084H15.7668C15.9825 17.084 16.1574 16.9088 16.1574 16.6927C16.1574 16.4765 15.9825 16.3013 15.7668 16.3013H4.23325C4.01764 16.3013 3.84262 16.4765 3.84262 16.6927C3.84262 16.9088 4.01764 17.084 4.23325 17.084Z" fill="#7E7E7E"/>
</g>
<defs>
<clipPath id="clip0">
<rect width="20" height="20" rx="6" fill="white"/>
</clipPath>
</defs>
</svg>
