<svg width="20" height="20" viewBox="0 0 20 20" fill="none" xmlns="http://www.w3.org/2000/svg">
<g clip-path="url(#clip0)">
<path d="M18.6659 3.3341H6.8326L6.06593 0.797769C5.88445 0.20702 5.26129 -0.127599 4.6686 0.0474357L2.97093 0.547436C2.78391 0.602753 2.61433 0.705396 2.4786 0.845436L0.565931 2.82644C0.422112 2.97674 0.322868 3.16403 0.279264 3.36744C0.0842639 4.26744 -0.454069 7.5301 0.822597 11.7508C2.09926 15.9714 4.35593 18.4094 5.01926 19.0558C5.16789 19.2017 5.35397 19.3037 5.55693 19.3504L8.2546 19.9728C8.338 19.992 8.42333 20.0018 8.50893 20.0018C8.6177 20.0017 8.7259 19.9861 8.83027 19.9554L9.7696 19.6784L10.5266 19.4551C10.8148 19.3721 11.0573 19.1763 11.1993 18.9121C11.3407 18.6524 11.3718 18.3467 11.2856 18.0638L10.8633 16.6674H18.6659C19.4023 16.6674 19.9993 16.0705 19.9993 15.3341V4.66744C19.9993 3.93106 19.4023 3.3341 18.6659 3.3341ZM13.4159 9.90077L19.2916 4.44544C19.318 4.5165 19.3319 4.59162 19.3326 4.66744V15.3341C19.3316 15.4055 19.3191 15.4763 19.2956 15.5438L13.4159 9.90077ZM18.6659 4.00077C18.7037 4.00132 18.7414 4.00511 18.7786 4.0121L11.7993 10.4901C11.5436 10.7272 11.1483 10.7272 10.8926 10.4901L6.0926 6.04644L6.44626 5.9421C6.7339 5.85849 6.97591 5.66284 7.11793 5.3991C7.25919 5.13953 7.29007 4.83403 7.2036 4.55144L7.03593 4.00077H18.6659ZM5.24393 13.7444C4.55575 12.902 4.04405 11.9297 3.73926 10.8854C3.30874 9.56964 3.25003 8.16049 3.5696 6.81344C3.57648 6.79527 3.59178 6.78159 3.6106 6.77677L5.34626 6.2651L9.26093 9.88777L5.24393 13.7444ZM10.6106 18.5948C10.5528 18.7019 10.4543 18.7812 10.3373 18.8148L9.89526 18.9451L9.0836 16.2591C9.05083 16.1431 8.95797 16.0538 8.84075 16.0256C8.72354 15.9974 8.60024 16.0347 8.5183 16.1232C8.43637 16.2116 8.40857 16.3374 8.4456 16.4521L9.2576 19.1341L8.64227 19.3154C8.5649 19.3384 8.4829 19.3409 8.40426 19.3228L5.7066 18.7008C5.623 18.6812 5.54642 18.639 5.48526 18.5788C4.85193 17.9604 2.6896 15.6261 1.4606 11.5581C0.231597 7.4901 0.744264 4.36744 0.930597 3.5081C0.94852 3.42563 0.988896 3.34973 1.04726 3.28877L2.95793 1.30877C3.01305 1.25164 3.08191 1.20963 3.15793 1.18677L3.77826 1.0041L4.58993 3.68977C4.6324 3.83045 4.76198 3.92672 4.90893 3.92677C4.94159 3.92693 4.97407 3.9221 5.00526 3.91244C5.1814 3.85918 5.28107 3.67328 5.22793 3.4971L4.41893 0.815769L4.85693 0.686769C5.09888 0.613837 5.35444 0.749275 5.42993 0.990436L6.56326 4.74377C6.59807 4.85633 6.58605 4.97817 6.52993 5.08177C6.47196 5.18882 6.37352 5.26818 6.2566 5.3021L5.81426 5.43244L5.68326 4.9991C5.62666 4.82735 5.44343 4.73207 5.27032 4.78434C5.09721 4.83662 4.99735 5.0174 5.04526 5.19177L5.17493 5.6211L3.42226 6.13777C3.18198 6.20798 2.99471 6.39688 2.9266 6.63777C2.57499 8.10531 2.63555 9.64146 3.1016 11.0768C3.51089 12.5336 4.31196 13.8503 5.4176 14.8834C5.60561 15.0492 5.86599 15.106 6.10593 15.0334L7.86293 14.5154L7.99393 14.9488C8.0267 15.0648 8.11956 15.1541 8.23678 15.1823C8.35399 15.2104 8.47729 15.1731 8.55923 15.0847C8.64116 14.9963 8.66896 14.8705 8.63193 14.7558L8.50226 14.3264L8.93993 14.1974C9.18191 14.1251 9.43718 14.2603 9.51326 14.5011L10.6466 18.2548C10.6817 18.3681 10.6693 18.4908 10.6123 18.5948H10.6106ZM10.6616 16.0008L10.1509 14.3104C9.96916 13.7186 9.34442 13.3838 8.75093 13.5601L5.9176 14.3954C5.89725 14.4015 5.87521 14.3976 5.85826 14.3848C5.8116 14.3438 5.75826 14.2928 5.6966 14.2348L9.75127 10.3414L10.4393 10.9784C10.9516 11.4509 11.7409 11.4509 12.2533 10.9784L12.9266 10.3531L18.7956 15.9864C18.753 15.9955 18.7095 16.0003 18.6659 16.0008H10.6616Z" fill="#7E7E7E"/>
<path d="M8.66668 5.33341H14C14.1841 5.33341 14.3333 5.18418 14.3333 5.00008C14.3333 4.81599 14.1841 4.66675 14 4.66675H8.66668C8.48258 4.66675 8.33334 4.81599 8.33334 5.00008C8.33334 5.18418 8.48258 5.33341 8.66668 5.33341Z" fill="#7E7E7E"/>
<path d="M18.3333 7.3335C18.1492 7.3335 18 7.48273 18 7.66683V12.3335C18 12.5176 18.1492 12.6668 18.3333 12.6668C18.5174 12.6668 18.6667 12.5176 18.6667 12.3335V7.66683C18.6667 7.48273 18.5174 7.3335 18.3333 7.3335Z" fill="#7E7E7E"/>
</g>
<defs>
<clipPath id="clip0">
<rect width="20" height="20" rx="6" fill="white"/>
</clipPath>
</defs>
</svg>
