<svg width="20" height="20" viewBox="0 0 20 20" fill="none" xmlns="http://www.w3.org/2000/svg">
<g clip-path="url(#clip0)">
<path d="M19.7873 8.1276L10.307 1.18631C10.1242 1.05248 9.87584 1.05248 9.69311 1.18631L0.212718 8.1276C-0.0188446 8.29717 -0.0691571 8.62232 0.100413 8.85389C0.269984 9.08545 0.595179 9.13568 0.826702 8.96619L10 2.24963L19.1733 8.96615C19.2658 9.03393 19.3733 9.06654 19.4799 9.06654C19.6399 9.06654 19.7978 8.99291 19.8996 8.85385C20.0692 8.62232 20.0189 8.29717 19.7873 8.1276Z" fill="#1A1A1A"/>
<path d="M17.2753 9.08374C16.9883 9.08374 16.7556 9.3164 16.7556 9.60339V17.8748H12.5985V13.3598C12.5985 11.9269 11.4328 10.7613 10.0001 10.7613C8.56735 10.7613 7.40165 11.927 7.40165 13.3598V17.8749H3.2445V9.60343C3.2445 9.31644 3.0118 9.08378 2.72485 9.08378C2.4379 9.08378 2.2052 9.31644 2.2052 9.60343V18.3946C2.2052 18.6816 2.4379 18.9142 2.72485 18.9142H7.92129C8.19458 18.9142 8.41821 18.7031 8.43891 18.435C8.44016 18.4229 8.44094 18.4096 8.44094 18.3946V13.3598C8.44094 12.5001 9.14036 11.8007 10.0001 11.8007C10.8598 11.8007 11.5592 12.5001 11.5592 13.3598V18.3946C11.5592 18.4095 11.56 18.4226 11.5613 18.4346C11.5817 18.7028 11.8054 18.9142 12.0789 18.9142H17.2753C17.5623 18.9142 17.795 18.6816 17.795 18.3946V9.60343C17.7949 9.3164 17.5623 9.08374 17.2753 9.08374Z" fill="#1A1A1A"/>
</g>
<defs>
<clipPath id="clip0">
<rect width="20" height="20" fill="white"/>
</clipPath>
</defs>
</svg>
