<svg width="20" height="20" viewBox="0 0 20 20" fill="none" xmlns="http://www.w3.org/2000/svg">
<path d="M16.7491 17.6979V19.6667C16.7491 19.8508 16.5999 20 16.4158 20C16.2318 20 16.0826 19.8508 16.0826 19.6667V17.6979C16.0826 16.165 14.8421 14.9245 13.309 14.9245C12.5837 14.9245 11.9256 14.555 11.5485 13.936C11.4527 13.7788 11.5025 13.5737 11.6598 13.4779C11.8169 13.3822 12.022 13.432 12.1178 13.5892C12.3728 14.0079 12.8181 14.2579 13.309 14.2579C15.2103 14.2578 16.7491 15.7965 16.7491 17.6979ZM10.933 14.357C10.9722 14.5368 10.8582 14.7144 10.6783 14.7536C9.80117 14.9447 8.90908 14.7534 8.1988 14.2686C7.49564 15.0221 6.56668 14.9245 6.69104 14.9245C5.15811 14.9245 3.91753 16.1649 3.91753 17.6979V19.6667C3.91753 19.8508 3.76829 20 3.58424 20C3.40018 20 3.25095 19.8508 3.25095 19.6667V17.6979C3.25095 15.7967 4.78945 14.2579 6.69095 14.2579C7.4601 14.2579 8.08364 13.6382 8.08364 12.8688V12.7811C6.62888 12.0855 5.60776 10.6237 5.54552 8.92145C4.94685 8.77751 4.50078 8.24166 4.50078 7.60412V5.87631C4.48258 5.03058 4.60814 2.9124 6.15257 1.42368C8.05961 -0.414658 11.1179 -0.297882 13.3667 0.784684C13.5858 0.890295 13.6191 1.18642 13.4371 1.33978C14.5763 1.61766 15.5587 2.31798 16.1898 3.32027C16.2224 3.37189 16.2821 3.45292 16.2665 3.58219C16.2568 3.66264 16.2329 3.73071 16.1709 3.79362C15.7647 4.20557 15.541 4.75145 15.541 5.33075V7.6042C15.541 7.78826 15.3918 7.93749 15.2077 7.93749C15.0237 7.93749 14.8744 7.78826 14.8744 7.6042V5.33075C14.8744 4.66263 15.1027 4.02847 15.5219 3.51903C14.8829 2.60515 13.886 2.0174 12.7584 1.89666L12.1727 1.83392C11.8301 1.79726 11.7629 1.32536 12.0812 1.19434L12.3477 1.08464C8.87787 -0.124988 5.16732 1.21904 5.16732 5.87268V7.60412C5.16732 7.86859 5.31963 8.09843 5.54227 8.21387V6.0532C5.54227 4.76679 6.58888 3.72017 7.8753 3.72017H12.1247C13.4112 3.72017 14.4578 4.7667 14.4578 6.05307V8.78201C14.4578 11.6805 11.6253 13.8822 8.7431 13.0337C8.72435 13.2715 8.66515 13.5009 8.56871 13.7142C9.12938 14.0993 9.83742 14.2546 10.5364 14.1023C10.7162 14.0631 10.8938 14.1771 10.933 14.357ZM10 12.5478C12.0905 12.5478 13.7912 10.8472 13.7912 8.75668V6.05307C13.7912 5.13428 13.0436 4.38675 12.1247 4.38675H7.8753C6.95642 4.38675 6.20885 5.13432 6.20885 6.0532V8.75668C6.20885 10.8472 7.90954 12.5478 10 12.5478ZM13.3746 18.2919H12.3747C12.1906 18.2919 12.0414 18.4411 12.0414 18.6252C12.0414 18.8092 12.1906 18.9585 12.3747 18.9585H13.3746C13.5586 18.9585 13.7079 18.8092 13.7079 18.6252C13.7079 18.4411 13.5586 18.2919 13.3746 18.2919Z" fill="#7E7E7E"/>
</svg>
