<svg width="20" height="20" viewBox="0 0 20 20" fill="none" xmlns="http://www.w3.org/2000/svg">
<path d="M0.833435 0.000117188V18.3334H2.5V20L3.33332 19.4445L4.16664 20V18.3333H19.1665V0L0.833435 0.000117188ZM2 17V1H15V17H2ZM17.4999 1.66668V5.55555H16V1.66668H17.4999ZM17.4999 7.22219V11.1111H16V7.22219H17.4999ZM17.4999 16.6667H16V12.7777H17.4999V16.6667Z" fill="#7E7E7E"/>
<path d="M5.27684 6.93909C5.23496 6.83554 5.17727 6.74347 5.10395 6.66308C5.03063 6.58272 4.94266 6.51757 4.84024 6.46745C4.7377 6.41745 4.62594 6.39233 4.50484 6.39233H3.43582V8.87265H4.11703V8.11108H4.52227C4.64336 8.11108 4.75461 8.08718 4.85586 8.03948C4.95719 7.99183 5.04332 7.92769 5.11438 7.84737C5.18539 7.76702 5.24066 7.67503 5.28031 7.57136C5.31988 7.46776 5.33965 7.3612 5.33965 7.25171C5.33973 7.14694 5.31875 7.04276 5.27684 6.93909ZM4.59387 7.4596C4.55777 7.49804 4.51883 7.51726 4.47688 7.51726H4.11703V6.9862H4.45938C4.50133 6.9862 4.5432 7.00487 4.58516 7.04214C4.62711 7.0794 4.64805 7.14929 4.64805 7.25171C4.64797 7.35194 4.62992 7.4212 4.59387 7.4596Z" fill="#7E7E7E"/>
<path d="M7.95791 7.17838C7.89854 7.02697 7.81413 6.89193 7.70471 6.77314C7.59514 6.65432 7.46366 6.55893 7.30995 6.4867C7.15623 6.41455 6.98506 6.37842 6.79643 6.37842C6.61244 6.37842 6.44303 6.41275 6.28811 6.48143C6.13323 6.55014 5.99932 6.64213 5.88643 6.75744C5.77342 6.87271 5.68553 7.00611 5.62264 7.15744C5.55975 7.30885 5.52838 7.46604 5.52838 7.629C5.52838 7.78975 5.55862 7.94576 5.6192 8.09713C5.67971 8.24857 5.76471 8.38303 5.8742 8.50064C5.98366 8.6183 6.11526 8.71318 6.26893 8.78537C6.42264 8.8576 6.59389 8.89365 6.78248 8.89365C6.96643 8.89365 7.1358 8.85869 7.29069 8.78889C7.44557 8.719 7.57889 8.62643 7.69069 8.51115C7.80245 8.39588 7.88979 8.26311 7.95268 8.11287C8.01557 7.96264 8.04702 7.80607 8.04702 7.64303C8.04702 7.48459 8.01729 7.32979 7.95791 7.17838ZM7.32213 7.87006C7.29995 7.94928 7.26623 8.01971 7.22084 8.08143C7.17541 8.14314 7.11659 8.19322 7.0444 8.23158C6.97217 8.27002 6.88717 8.28924 6.78936 8.28924C6.69155 8.28924 6.60713 8.27061 6.53608 8.23334C6.46502 8.19607 6.40623 8.14717 6.35963 8.08654C6.31303 8.026 6.27807 7.95678 6.25487 7.87873C6.23155 7.80072 6.21991 7.71979 6.21991 7.63596C6.21991 7.55447 6.23092 7.47475 6.25315 7.39662C6.27522 7.31869 6.30959 7.24877 6.35616 7.18705C6.40272 7.12537 6.46151 7.07584 6.5326 7.03854C6.60362 7.00131 6.68803 6.98264 6.78588 6.98264C6.88139 6.98264 6.96459 7.00068 7.03565 7.03682C7.10666 7.07291 7.16604 7.12064 7.21381 7.18006C7.26147 7.23943 7.29702 7.30818 7.32037 7.38615C7.34358 7.4642 7.35534 7.5451 7.35534 7.62893C7.35534 7.71057 7.34424 7.79088 7.32213 7.87006Z" fill="#7E7E7E"/>
<path d="M10.0068 7.96093C10.1186 7.88175 10.206 7.77987 10.2689 7.65526C10.3318 7.53069 10.3632 7.3962 10.3632 7.25175C10.3632 7.1469 10.3422 7.04276 10.3003 6.93909C10.2583 6.83554 10.2007 6.74347 10.1274 6.66308C10.0541 6.58272 9.9661 6.51757 9.8636 6.46745C9.7611 6.41745 9.64935 6.39233 9.52829 6.39233H8.38947V8.87265H9.07068V8.11108H9.32564L9.76236 8.87265H10.5309L10.0068 7.96093ZM9.61732 7.44741C9.58122 7.49401 9.5422 7.5173 9.50032 7.5173H9.07068V6.98628H9.48282C9.52478 6.98628 9.56665 7.00901 9.60861 7.05444C9.65056 7.09987 9.6715 7.16565 9.6715 7.25183C9.6715 7.33565 9.65341 7.40093 9.61732 7.44741Z" fill="#7E7E7E"/>
<path d="M10.5867 6.39233V6.98624H11.3028V8.87265H11.984V6.98624H12.6966V6.39233H10.5867Z" fill="#7E7E7E"/>
<path d="M5.13711 10.0477V9.45386H3.43582V11.9342H4.11703V11.0119H4.94848V10.4599H4.11703V10.0477H5.13711Z" fill="#7E7E7E"/>
<path d="M7.7169 10.2399C7.65753 10.0885 7.57311 9.95342 7.4637 9.83467C7.35413 9.71584 7.22264 9.62041 7.06886 9.54822C6.91514 9.47607 6.74397 9.43994 6.55534 9.43994C6.37136 9.43994 6.20194 9.47428 6.04706 9.54295C5.89218 9.61166 5.75827 9.70369 5.64538 9.81896C5.53237 9.93424 5.44448 10.0676 5.38159 10.219C5.3187 10.3704 5.28729 10.5276 5.28729 10.6905C5.28729 10.8512 5.31753 11.0073 5.37811 11.1587C5.43862 11.3101 5.52362 11.4445 5.63311 11.5622C5.74257 11.6798 5.87417 11.7747 6.02784 11.8469C6.18155 11.9191 6.3528 11.9552 6.54139 11.9552C6.72534 11.9552 6.89471 11.9202 7.0496 11.8504C7.20448 11.7805 7.33788 11.6879 7.4496 11.5727C7.56139 11.4574 7.6487 11.3246 7.71159 11.1744C7.77448 11.0242 7.80593 10.8676 7.80593 10.7045C7.80604 10.5461 7.77632 10.3913 7.7169 10.2399ZM7.08112 10.9316C7.05897 11.0108 7.02522 11.0812 6.97983 11.143C6.9344 11.2047 6.87557 11.2548 6.80339 11.2931C6.73116 11.3316 6.64616 11.3508 6.54835 11.3508C6.4505 11.3508 6.36612 11.3322 6.29507 11.2949C6.22401 11.2576 6.16522 11.2087 6.11862 11.1481C6.07202 11.0876 6.03706 11.0183 6.01386 10.9403C5.99054 10.8623 5.97889 10.7813 5.97889 10.6975C5.97889 10.616 5.98991 10.5363 6.0121 10.4582C6.03417 10.3803 6.06854 10.3104 6.11511 10.2486C6.16167 10.1869 6.2205 10.1374 6.29155 10.1001C6.36257 10.0629 6.44698 10.0442 6.54483 10.0442C6.64034 10.0442 6.72354 10.0622 6.7946 10.0984C6.86561 10.1345 6.92499 10.1822 6.97276 10.2416C7.02042 10.301 7.05596 10.3697 7.07932 10.4477C7.10253 10.5258 7.11429 10.6067 7.11429 10.6905C7.11436 10.772 7.10323 10.8524 7.08112 10.9316Z" fill="#7E7E7E"/>
<path d="M8.82959 11.3403V9.45386H8.14838V11.9342H9.95443V11.3403H8.82959Z" fill="#7E7E7E"/>
<path d="M10.9256 9.45386H10.2444V11.9342H10.9256V9.45386Z" fill="#7E7E7E"/>
<path d="M13.6974 10.2399C13.6381 10.0885 13.5536 9.95346 13.4442 9.83467C13.3346 9.71584 13.2031 9.62041 13.0494 9.54822C12.8957 9.47607 12.7245 9.43994 12.5359 9.43994C12.3519 9.43994 12.1825 9.47428 12.0276 9.54295C11.8727 9.61166 11.7388 9.70365 11.6259 9.81896C11.5129 9.93424 11.425 10.0676 11.3621 10.219C11.2992 10.3704 11.2678 10.5276 11.2678 10.6905C11.2678 10.8513 11.298 11.0073 11.3586 11.1587C11.4191 11.3101 11.5041 11.4445 11.6136 11.5622C11.7231 11.6798 11.8547 11.7747 12.0083 11.8469C12.1621 11.9191 12.3333 11.9552 12.5219 11.9552C12.7059 11.9552 12.8753 11.9202 13.0301 11.8504C13.185 11.7805 13.3183 11.6879 13.4302 11.5727C13.5419 11.4574 13.6293 11.3246 13.6921 11.1744C13.755 11.0242 13.7865 10.8676 13.7865 10.7045C13.7865 10.5461 13.7568 10.3913 13.6974 10.2399ZM13.0617 10.9316C13.0396 11.0108 13.0058 11.0812 12.9604 11.1429C12.915 11.2047 12.8562 11.2547 12.784 11.2931C12.7118 11.3315 12.6268 11.3508 12.529 11.3508C12.4312 11.3508 12.3467 11.3321 12.2757 11.2949C12.2046 11.2576 12.1458 11.2087 12.0993 11.1481C12.0527 11.0875 12.0177 11.0183 11.9945 10.9403C11.9712 10.8622 11.9596 10.7813 11.9596 10.6975C11.9596 10.616 11.9706 10.5363 11.9928 10.4581C12.0149 10.3802 12.0492 10.3103 12.0958 10.2486C12.1424 10.1869 12.2012 10.1374 12.2722 10.1001C12.3433 10.0628 12.4277 10.0442 12.5255 10.0442C12.621 10.0442 12.7042 10.0622 12.7753 10.0983C12.8463 10.1344 12.9057 10.1822 12.9535 10.2416C13.0011 10.301 13.0367 10.3697 13.06 10.4477C13.0832 10.5257 13.095 10.6066 13.095 10.6904C13.0949 10.772 13.0838 10.8524 13.0617 10.9316Z" fill="#7E7E7E"/>
</svg>
