<svg width="20" height="20" viewBox="0 0 20 20" fill="none" xmlns="http://www.w3.org/2000/svg">
<g clip-path="url(#clip0)">
<path d="M18.9712 7.68106L17.2507 7.51525C17.0681 6.78275 16.7733 6.0828 16.3771 5.44014L17.4738 4.11621C17.5815 3.98631 17.5725 3.79592 17.4533 3.67671L15.5924 1.81562C15.4732 1.6964 15.2828 1.68763 15.1529 1.79519L13.828 2.89219C13.1842 2.49881 12.4851 2.20421 11.7539 2.01829L11.5879 0.295395C11.5718 0.127829 11.4309 0 11.2625 0H8.71917C8.55081 0 8.41005 0.127829 8.39393 0.295395L8.2278 2.01829C7.49658 2.20405 6.79743 2.49881 6.15366 2.89219L4.82877 1.79487C4.69903 1.68731 4.50864 1.69609 4.38927 1.8153L2.52833 3.67655C2.40912 3.79592 2.40018 3.98631 2.5079 4.11621L3.60426 5.43998C3.20769 6.08264 2.91277 6.78275 2.73005 7.51541L1.0105 7.68138C0.843256 7.69766 0.716065 7.83857 0.716863 8.00661V10.6449C0.715906 10.8128 0.843096 10.9539 1.01034 10.9701L2.73196 11.1361C2.91756 11.8672 3.212 12.5665 3.60522 13.2103L2.50774 14.535C2.39523 14.6708 2.41071 14.8714 2.54285 14.9884L3.95439 16.2368C4.02413 16.2986 4.11701 16.3276 4.20973 16.3166C4.30229 16.3054 4.38576 16.2553 4.43906 16.1789L6.46772 13.268C6.55821 13.1381 6.54257 12.9619 6.43054 12.8499C4.48422 10.9036 4.48406 7.74777 6.43054 5.80129C8.37702 3.85481 11.5328 3.85481 13.4793 5.80129C15.4258 7.74777 15.4258 10.9036 13.4793 12.8499C13.3658 12.9634 13.3515 13.1423 13.4453 13.2723L15.5453 16.183C15.5993 16.2579 15.6824 16.3064 15.7742 16.3166C15.8659 16.3268 15.9577 16.2978 16.0268 16.2367L17.4388 14.9887C17.571 14.8719 17.5866 14.6711 17.4739 14.5351L16.3768 13.2103C16.7701 12.5665 17.0647 11.8673 17.2505 11.1361L18.9712 10.9701C19.1384 10.9539 19.2656 10.8128 19.2646 10.6449V8.0063C19.2654 7.83841 19.1384 7.69734 18.9712 7.68106ZM18.611 10.3479L16.9534 10.5078C16.8126 10.5214 16.6967 10.6243 16.6666 10.7625C16.4864 11.5798 16.1588 12.3573 15.7 13.0572C15.6214 13.1772 15.6304 13.3344 15.7218 13.4447L16.7687 14.7084L15.8643 15.508L14.1341 13.1097C16.1375 10.8996 16.0734 7.47088 13.9415 5.33897C11.7433 3.14082 8.16652 3.14082 5.96838 5.33897C3.83534 7.472 3.77231 10.9033 5.77879 13.1131L4.11254 15.504L3.2128 14.7083L4.25952 13.4445C4.35097 13.3339 4.35974 13.1769 4.28123 13.0569C3.82226 12.3571 3.49447 11.5796 3.31381 10.7625C3.28413 10.6245 3.16859 10.5215 3.02815 10.5078L1.37053 10.3479V8.30345L3.02815 8.14338C3.16955 8.12966 3.28573 8.02608 3.31525 7.88708C3.49112 7.06968 3.81875 6.29266 4.28091 5.5959C4.36038 5.47573 4.35176 5.31774 4.25984 5.20683L3.20099 3.92838L4.6411 2.48811L5.91954 3.54681C6.02998 3.63841 6.18717 3.64719 6.30702 3.56851C7.00681 3.10954 7.78431 2.78175 8.60139 2.60126C8.73976 2.57062 8.84253 2.45444 8.85609 2.31353L9.016 0.653826H10.9657L11.1257 2.31353C11.1393 2.45444 11.2421 2.57062 11.3803 2.60126C12.1975 2.78175 12.975 3.1097 13.6748 3.56867C13.7947 3.64735 13.9518 3.63857 14.0623 3.54697L15.3406 2.48827L16.7807 3.92838L15.722 5.20683C15.6302 5.31774 15.6218 5.47573 15.7012 5.59574C16.1636 6.2925 16.4912 7.06968 16.6672 7.88708C16.6963 8.02592 16.8121 8.12966 16.9532 8.14338L18.611 8.30329V10.3479Z" fill="#7E7E7E"/>
<path d="M11.1305 15.0773V10.1147C11.9543 9.63896 12.4952 8.73586 12.4952 7.80515C12.4952 6.5334 11.7679 5.60716 10.5498 5.32773C10.4483 5.30443 10.342 5.33076 10.2632 5.39859C10.1845 5.46657 10.1427 5.56791 10.1507 5.67164L10.2587 7.0586C9.98582 7.20175 9.66026 7.20191 9.38721 7.05892L9.50339 5.6643C9.51233 5.55705 9.46796 5.45237 9.38466 5.38422C9.30135 5.31608 9.18996 5.29326 9.08671 5.32326C7.97264 5.64594 7.27859 6.6041 7.27859 7.82414C7.27859 8.94396 7.86619 9.84977 8.84669 10.2424V15.1859C8.15217 15.5958 7.48303 16.4278 7.49356 17.4863C7.49356 18.7477 8.21265 19.6801 9.41498 19.981C9.51711 20.0065 9.62515 19.9814 9.70559 19.9136C9.78602 19.8458 9.82895 19.7435 9.82097 19.6386L9.71341 18.2518C9.98614 18.1087 10.3119 18.1085 10.5849 18.2514L10.4687 19.6461C10.4598 19.7534 10.5042 19.8581 10.5875 19.9262C10.6708 19.9944 10.7822 20.0172 10.8854 19.9872C11.9941 19.6659 12.6895 18.7126 12.7007 17.4956C12.7009 16.3756 12.1056 15.4699 11.1305 15.0773ZM11.1655 19.1567L11.2525 18.1116C11.2617 18.0003 11.2137 17.8921 11.1249 17.8245L11.1127 17.8151C10.5372 17.3783 9.7399 17.3835 9.17033 17.8278C9.08479 17.8953 9.03851 18.0011 9.04697 18.1098L9.13044 19.1849C8.50119 18.8714 8.1493 18.2723 8.1493 17.4831C8.14084 16.6233 8.74631 15.9455 9.31428 15.6793C9.4287 15.6254 9.50132 15.5098 9.50052 15.3833V10.0108C9.50132 9.86701 9.40764 9.73982 9.27007 9.69785C8.44485 9.44873 7.93338 8.73075 7.93338 7.82382C7.93338 7.09339 8.2583 6.48952 8.80616 6.15343L8.7195 7.19856C8.71025 7.30995 8.75844 7.41831 8.84749 7.48582L8.85962 7.49507C9.43429 7.9317 10.2308 7.92707 10.8002 7.4839C10.8031 7.48167 10.8063 7.47911 10.809 7.47688C10.8904 7.40906 10.9338 7.30596 10.9256 7.20032L10.841 6.11369C11.4829 6.41451 11.8418 7.01089 11.8418 7.80531C11.8418 8.54579 11.3575 9.29297 10.6639 9.62236C10.55 9.67646 10.4773 9.79136 10.4773 9.9176V15.3087C10.4773 15.4529 10.5718 15.5799 10.7097 15.6215C11.5351 15.8708 12.0475 16.5888 12.0475 17.4927C12.0405 18.2199 11.7129 18.8217 11.1656 19.1567H11.1655Z" fill="#7E7E7E"/>
</g>
<defs>
<clipPath id="clip0">
<rect width="20" height="20" rx="6" fill="white"/>
</clipPath>
</defs>
</svg>
