<svg width="20" height="20" viewBox="0 0 20 20" fill="none" xmlns="http://www.w3.org/2000/svg">
<g clip-path="url(#clip0)">
<path d="M5.14187 11.4165C3.68433 11.806 2.66994 13.1257 2.66846 14.6344V14.6858C2.46822 14.7292 2.29812 14.8604 2.20523 15.043L1.70868 16.0275L0.595597 16.1854C0.333856 16.221 0.115936 16.404 0.0357416 16.6557C-0.0453388 16.9039 0.0244258 17.1766 0.214696 17.3555L1.0155 18.1186L0.826538 19.1967C0.78075 19.452 0.884987 19.7109 1.09481 19.8633C1.30784 20.0215 1.59257 20.0441 1.82797 19.9216L2.82541 19.4087L3.82284 19.9216C4.05775 20.0437 4.34176 20.021 4.55433 19.8633C4.76422 19.7109 4.86855 19.452 4.82293 19.1967L4.72962 18.6635H6.57518L6.54185 18.8431C6.47688 19.2082 6.62592 19.5784 6.92577 19.7966C7.10059 19.9266 7.31274 19.9967 7.53063 19.9965C7.6923 19.9964 7.8516 19.9579 7.99553 19.8842L10.0051 18.8651L12.0046 19.8842C12.3488 20.0614 12.764 20.0271 13.0743 19.7956C13.3737 19.5775 13.5226 19.2078 13.4579 18.8431L13.4246 18.6635H15.2709L15.1775 19.1967C15.1319 19.452 15.2363 19.7109 15.4461 19.8633C15.6591 20.0217 15.9439 20.0443 16.1793 19.9216L17.1767 19.4087L18.1742 19.9216C18.4095 20.0442 18.6943 20.0216 18.9073 19.8633C19.1165 19.7105 19.2201 19.4517 19.1739 19.1967L18.985 18.12L19.7865 17.3555C19.9768 17.1766 20.0465 16.9039 19.9654 16.6557C19.8851 16.4038 19.6669 16.2207 19.4049 16.1854L18.2918 16.0275L17.7952 15.043C17.7023 14.8603 17.532 14.7292 17.3317 14.6858V14.6344C17.3302 13.1257 16.3158 11.806 14.8583 11.4165L12.2219 10.713C11.993 10.2193 11.8868 9.67762 11.9123 9.13403C12.1676 8.9191 12.3958 8.71413 12.5738 8.5485C12.8448 8.29601 12.9989 7.94243 12.9994 7.57205V7.2908C13.5269 7.15625 13.9189 6.71336 13.9884 6.17335C14.0578 5.63334 13.7906 5.10566 13.3143 4.84202C13.5542 4.49805 13.6775 4.08619 13.6659 3.66698C13.6589 2.49049 12.8955 1.45216 11.7747 1.09458C11.8262 1.04475 11.883 1.0008 11.9443 0.963607C12.0577 0.9046 12.1274 0.785932 12.1236 0.658145C12.1199 0.530358 12.0434 0.415986 11.9266 0.363769C11.3168 0.109802 10.6605 -0.013688 10.0001 0.00120303C8.95754 -0.01336 7.98369 0.5196 7.434 1.40555C6.71451 1.77021 6.28182 2.52883 6.33427 3.33377C6.33909 3.85256 6.48918 4.3596 6.76748 4.79741C6.25863 5.03521 5.95402 5.56702 6.00634 6.12625C6.05865 6.68548 6.45664 7.15157 7.00075 7.29083V7.57209C7.00124 7.94246 7.15534 8.29604 7.42633 8.54853C7.6043 8.71515 7.83255 8.9191 8.08783 9.13407C8.11298 9.67759 8.00691 10.2192 7.77856 10.713L5.14187 11.4165ZM4.11046 17.6971C3.98792 17.8136 3.9319 17.9837 3.96116 18.1503L4.16477 19.312L4.49336 19.2547L4.12679 19.3277L3.06038 18.7791C2.91246 18.7028 2.73675 18.7028 2.58882 18.7791L1.52241 19.3277L1.6747 19.6239L1.48341 19.312L1.68736 18.149C1.71626 17.9816 1.65915 17.811 1.5354 17.6947L0.6896 16.8456L1.88199 16.6759C2.04832 16.6529 2.19277 16.5498 2.26857 16.4L2.82409 15.3309C2.84141 15.3309 2.84509 15.3389 2.84709 15.3429L3.38031 16.3997C3.45601 16.5492 3.6 16.6522 3.7659 16.6756L4.97328 16.8716L4.11046 17.6971ZM12.6778 19.2633C12.5705 19.3443 12.4261 19.356 12.3072 19.2933L10.3077 18.2746C10.1144 18.1768 9.88613 18.1768 9.69284 18.2746L7.69331 19.2933C7.57448 19.3563 7.4299 19.3446 7.32275 19.2633C7.22671 19.1959 7.17836 19.079 7.19876 18.9634L7.58035 16.8059C7.61899 16.5892 7.54539 16.3676 7.38474 16.2171L5.76779 14.6848C5.67952 14.6062 5.64639 14.4827 5.68346 14.3705C5.72295 14.2488 5.83017 14.1615 5.9574 14.1476L8.19321 13.8327C8.4091 13.803 8.59691 13.6698 8.69609 13.4757L9.69586 11.5125C9.75703 11.4011 9.87402 11.3319 10.0011 11.3319C10.1282 11.3319 10.2452 11.4011 10.3064 11.5125L11.3061 13.4757C11.4058 13.6696 11.5935 13.8027 11.8094 13.8327L14.0452 14.1476C14.1724 14.1615 14.2796 14.2488 14.3191 14.3705C14.3562 14.4827 14.323 14.6062 14.2348 14.6848L12.6172 16.2131C12.4566 16.3635 12.383 16.585 12.4216 16.8016L12.8032 18.9594C12.8236 19.0755 12.7746 19.1928 12.6779 19.26V19.2633H12.6778ZM9.10195 11.2089C8.86212 11.1411 8.63371 11.0381 8.42412 10.9033C8.59707 10.5052 8.70262 10.081 8.73637 9.64826C8.77704 9.6786 8.81601 9.70993 8.85668 9.73958C9.08605 9.90754 9.36284 9.99833 9.64715 9.99886H10.353C10.6372 9.9984 10.9139 9.90761 11.1431 9.73958C11.1841 9.70993 11.2231 9.67824 11.2638 9.64826C11.2974 10.0811 11.4029 10.5052 11.576 10.9033C11.3664 11.0381 11.138 11.1411 10.8982 11.2089C10.7232 10.8747 10.3772 10.6653 10.0001 10.6653C9.62291 10.6653 9.27691 10.8747 9.10195 11.2089ZM17.1984 15.3433L17.7316 16.4C17.8074 16.5495 17.9513 16.6525 18.1172 16.676L19.3249 16.8719L18.4648 17.6944C18.3417 17.8111 18.2852 17.9816 18.3141 18.1487L18.5181 19.3104L18.8463 19.253L18.4798 19.326L17.4134 18.7775C17.2654 18.7012 17.0897 18.7012 16.9418 18.7775L15.8754 19.326L16.0277 19.6223L15.8367 19.3104L16.04 18.1493C16.0696 17.9824 16.0135 17.8117 15.8907 17.6947L15.0429 16.8456L16.2353 16.676C16.4011 16.6527 16.545 16.5497 16.6205 16.4003L17.176 15.3309C17.1937 15.3309 17.1984 15.3393 17.1984 15.3433ZM12.0783 11.3652L14.6867 12.0614C15.8525 12.3725 16.6639 13.4278 16.6652 14.6344V14.8877C16.6226 14.9342 16.5864 14.9864 16.5579 15.0427L16.0613 16.0274L14.9479 16.1854C14.6861 16.2208 14.4679 16.4037 14.3874 16.6553C14.3066 16.9036 14.3763 17.1761 14.5663 17.3551L15.2405 17.997H13.3076L13.0743 16.6973L14.6919 15.169C14.965 14.9143 15.0668 14.525 14.9536 14.1692C14.8367 13.8033 14.5187 13.5379 14.1377 13.4884L11.8996 13.1734L11.2051 11.8094C11.5182 11.7093 11.813 11.5593 12.0783 11.3652ZM7.77259 1.98374C7.85584 1.95517 7.92478 1.89544 7.96489 1.81712C8.38348 1.09205 9.16303 0.651782 10.0001 0.667722C10.3851 0.664213 10.7692 0.708197 11.1435 0.798691C11.0586 0.905453 10.9866 1.02176 10.9289 1.14528C10.8851 1.23879 10.8872 1.3473 10.9345 1.43907C10.9818 1.53084 11.0689 1.59549 11.1705 1.61419C11.2448 1.62819 12.9994 1.9761 12.9994 3.66704C13.002 3.86128 12.9652 4.05401 12.8911 4.23359C12.7183 3.88696 12.3646 3.66767 11.9773 3.66704H10.9998C10.4584 3.69702 9.91955 3.57242 9.44619 3.30779C9.10986 3.10696 8.72552 3.00079 8.33379 3.00052C7.74957 3.00364 7.24422 3.40822 7.11342 3.97762C7.04037 3.77075 7.00233 3.55316 7.00079 3.33377C7.00079 2.27165 7.74396 1.99374 7.77259 1.98374ZM7.88024 8.06064C7.74461 7.93436 7.66747 7.7574 7.6673 7.57209V6.99954C7.6673 6.8155 7.5181 6.6663 7.33406 6.6663C7.03286 6.66705 6.76879 6.4651 6.69063 6.1742C6.61247 5.88331 6.73977 5.57624 7.00079 5.42592V5.66653C7.00079 5.85057 7.14999 5.99978 7.33403 5.99978C7.51807 5.99978 7.66727 5.85057 7.66727 5.66653V4.66677C7.66727 4.62577 7.68095 3.66701 8.33379 3.66701C8.61908 3.66822 8.8984 3.74901 9.14027 3.90028C9.70812 4.21388 10.3518 4.36387 10.9998 4.3335H11.9773C12.122 4.33209 12.2529 4.41914 12.3075 4.55312C12.3226 4.58923 12.3311 4.62767 12.3328 4.66677V5.66653C12.3328 5.85057 12.482 5.99978 12.6661 5.99978C12.8501 5.99978 12.9993 5.85057 12.9993 5.66653V5.42592C13.2603 5.57624 13.3876 5.88331 13.3095 6.1742C13.2313 6.4651 12.9673 6.66705 12.666 6.6663C12.482 6.6663 12.3328 6.8155 12.3328 6.99954V7.57209C12.3326 7.7574 12.2555 7.93436 12.1199 8.06064C11.6871 8.46673 11.2309 8.84707 10.7535 9.1997C10.6377 9.28537 10.4977 9.33204 10.3536 9.33299H9.64712C9.50306 9.33195 9.36307 9.28527 9.24722 9.1997C8.76976 8.84704 8.31329 8.46669 7.88024 8.06064ZM8.79538 11.8094L8.10055 13.1724L5.86474 13.4874C5.48377 13.5369 5.16582 13.8023 5.04892 14.1682C4.93566 14.524 5.0375 14.9133 5.31053 15.168L6.92548 16.684L6.69188 17.997H4.759L5.43451 17.3542C5.62452 17.1752 5.69418 16.9026 5.61346 16.6543C5.53291 16.4027 5.31479 16.2198 5.05292 16.1845L3.93984 16.0265L3.44296 15.0417C3.41413 14.9857 3.37778 14.9339 3.33498 14.8878V14.6345C3.336 13.4276 4.14769 12.3718 5.31384 12.0607L7.92189 11.3652C8.18727 11.5593 8.48221 11.7093 8.79538 11.8094Z" fill="#7E7E7E"/>
</g>
<defs>
<clipPath id="clip0">
<rect width="20" height="20" rx="6" fill="white"/>
</clipPath>
</defs>
</svg>
